<?xml version="1.0" ?><svg id="Line" style="enable-background:new 0 0 128 128;" version="1.1" viewBox="0 0 128 128" xml:space="preserve" xmlns="http://www.w3.org/2000/svg" xmlns:xlink="http://www.w3.org/1999/xlink"><g><path d="M64,84c5.514,0,10-4.486,10-10s-4.486-10-10-10s-10,4.486-10,10S58.486,84,64,84z M56.069,75H63v6.931   C59.388,81.477,56.523,78.612,56.069,75z M65,81.931V75h6.931C71.477,78.612,68.612,81.477,65,81.931z M71.931,73H65v-6.931   C68.612,66.523,71.477,69.388,71.931,73z M63,66.069V73h-6.931C56.523,69.388,59.388,66.523,63,66.069z"/><path d="M65,109c0,1.654,1.346,3,3,3s3-1.346,3-3s-1.346-3-3-3S65,107.346,65,109z M69,109c0,0.552-0.449,1-1,1s-1-0.448-1-1   s0.449-1,1-1S69,108.448,69,109z"/><path d="M47,88h-8c-0.552,0-1,0.447-1,1v8c0,0.553,0.448,1,1,1h8c0.552,0,1-0.447,1-1v-8C48,88.447,47.552,88,47,88z M46,96h-6v-6   h6V96z"/><path d="M47,101h-8c-0.552,0-1,0.447-1,1v8c0,0.553,0.448,1,1,1h8c0.552,0,1-0.447,1-1v-8C48,101.447,47.552,101,47,101z M46,109   h-6v-6h6V109z"/><path d="M81,98h8c0.552,0,1-0.447,1-1v-8c0-0.553-0.448-1-1-1h-8c-0.552,0-1,0.447-1,1v8C80,97.553,80.448,98,81,98z M82,90h6v6h-6   V90z"/><path d="M81,111h8c0.552,0,1-0.447,1-1v-8c0-0.553-0.448-1-1-1h-8c-0.552,0-1,0.447-1,1v8C80,110.553,80.448,111,81,111z M82,103h6   v6h-6V103z"/><path d="M123.124,51.501l-16-20C106.361,30.547,105.222,30,104,30s-2.361,0.547-3.124,1.501l-16,20   c-1.377,1.723-1.097,4.245,0.625,5.623C86.208,57.688,87.095,58,87.998,58c0.72,0,1.4-0.209,2.002-0.56v10.145   c-2.201-5.515-6.088-10.122-11-13.237V31.454C79.603,31.802,80.292,32,81.003,32c0.86,0,1.681-0.271,2.375-0.783   c0.859-0.635,1.42-1.566,1.579-2.624c0.158-1.057-0.104-2.111-0.739-2.971l-17-23C66.466,1.607,65.264,1.001,63.999,1   c-1.263,0.001-2.465,0.607-3.216,1.622l-17,23c-0.635,0.859-0.897,1.914-0.739,2.971c0.159,1.058,0.719,1.989,1.579,2.624   C45.316,31.729,46.137,32,46.997,32c0.711,0,1.4-0.198,2.003-0.546v22.894c-4.912,3.114-8.799,7.721-11,13.237V57.44   c0.602,0.35,1.282,0.56,2.002,0.56c0.903,0,1.79-0.312,2.497-0.876c1.722-1.378,2.002-3.9,0.625-5.623l-16-20   C26.361,30.547,25.222,30,24,30s-2.361,0.547-3.124,1.501l-16,20c-1.377,1.723-1.097,4.245,0.625,5.623   C6.824,58.18,8.614,58.251,10,57.452v30.569c-1.67,0.109-3,1.489-3,3.186v1.586c0,1.698,1.33,3.077,3,3.186V126   c0,0.553,0.448,1,1,1h20h66h20c0.552,0,1-0.447,1-1V95.979c1.67-0.109,3-1.489,3-3.186v-1.586c0-1.698-1.33-3.077-3-3.186V57.452   c1.386,0.799,3.177,0.729,4.499-0.328C124.221,55.746,124.501,53.224,123.124,51.501z M116,88H98v-6h1c2.206,0,4-1.794,4-4h7   c0.552,0,1-0.447,1-1V63c0-0.217-0.07-0.427-0.2-0.6l-6-8c-0.011-0.015-0.031-0.02-0.043-0.035C104.573,54.147,104.308,54,104,54   s-0.573,0.147-0.756,0.366c-0.012,0.014-0.032,0.019-0.043,0.035l-6,8C97.07,62.573,97,62.783,97,63v11h-5V55.403l12-15l12,15V88z    M109,63.333V67h-4v-9L109,63.333z M109,69v7h-4v-7H109z M103,67h-4v-3.667L103,58V67z M99,69h4v7h-0.556   c-0.694-1.19-1.97-2-3.444-2V69z M45.811,29.607c-0.43-0.317-0.71-0.782-0.789-1.311s0.052-1.056,0.37-1.485l17-23   c0.765-1.03,2.458-1.027,3.218,0l17,23c0.317,0.43,0.449,0.957,0.37,1.485s-0.359,0.993-0.789,1.311   c-0.867,0.641-2.163,0.441-2.797-0.419L64.804,9.452C64.616,9.197,64.317,9.047,64,9.047s-0.616,0.15-0.804,0.405L48.608,29.188   C47.973,30.049,46.677,30.248,45.811,29.607z M51,29.318l13-17.588l13.019,17.614C77.016,29.375,77,29.403,77,29.437v23.756   c-3.052-1.599-6.43-2.647-10-3.027V37h4c1.654,0,3-1.346,3-3s-1.346-3-3-3h-4v-4c0-1.654-1.346-3-3-3s-3,1.346-3,3v4h-4   c-1.654,0-3,1.346-3,3s1.346,3,3,3h4v13.165c-3.57,0.38-6.948,1.429-10,3.027V29.318z M62,35h-5c-0.551,0-1-0.448-1-1s0.449-1,1-1   h5c0.552,0,1-0.447,1-1v-5c0-0.552,0.449-1,1-1s1,0.448,1,1v5c0,0.553,0.448,1,1,1h5c0.551,0,1,0.448,1,1s-0.449,1-1,1h-5   c-0.552,0-1,0.447-1,1v14.023C64.668,50.011,64.335,50,64,50s-0.668,0.011-1,0.023V36C63,35.447,62.552,35,62,35z M64,52   c13.268,0,24.377,9.936,25.841,23.11c0.056,0.507,0.484,0.89,0.994,0.89H99c1.103,0,2,0.897,2,2s-0.897,2-2,2H88   c-1.103,0-2-0.897-2-2c0-12.131-9.869-22-22-22s-22,9.869-22,22c0,1.103-0.897,2-2,2H29c-1.103,0-2-0.897-2-2s0.897-2,2-2h8.166   c0.51,0,0.938-0.383,0.994-0.89C39.623,61.936,50.732,52,64,52z M30,88H12V55.403l12-15l12,15V74h-5V63c0-0.217-0.07-0.427-0.2-0.6   l-6-8c-0.011-0.015-0.031-0.02-0.043-0.035C24.573,54.147,24.308,54,24,54s-0.573,0.147-0.756,0.366   c-0.012,0.014-0.032,0.019-0.043,0.035l-6,8C17.07,62.573,17,62.783,17,63v14c0,0.553,0.448,1,1,1h7c0,2.206,1.794,4,4,4h1V88z    M25.556,76H25v-7h4v5C27.526,74,26.25,74.81,25.556,76z M19,76v-7h4v7H19z M29,63.333V67h-4v-9L29,63.333z M23,67h-4v-3.667L23,58   V67z M6.75,55.562c-0.861-0.688-1.001-1.949-0.312-2.811l16-20c0.764-0.955,2.36-0.955,3.124,0l16,20   c0.689,0.861,0.549,2.122-0.312,2.811c-0.838,0.672-2.144,0.521-2.812-0.312L24.781,38.178c-0.189-0.237-0.477-0.375-0.781-0.375   s-0.591,0.138-0.781,0.375L9.562,55.249C8.873,56.109,7.612,56.25,6.75,55.562z M9,92.793v-1.586C9,90.541,9.542,90,10.208,90H30v4   H10.208C9.542,94,9,93.459,9,92.793z M12,96h18v29H12V96z M32,82h8c2.206,0,4-1.794,4-4c0-11.028,8.972-20,20-20s20,8.972,20,20   c0,2.206,1.794,4,4,4h8v43H74V99c0-5.514-4.486-10-10-10s-10,4.486-10,10v26H32V82z M72,125H56V99c0-4.411,3.589-8,8-8s8,3.589,8,8   V125z M98,125V96h18v29H98z M119,91.207v1.586c0,0.666-0.542,1.207-1.208,1.207H98v-4h19.792C118.458,90,119,90.541,119,91.207z    M121.25,55.562c-0.86,0.687-2.123,0.549-2.812-0.312l-13.657-17.071c-0.379-0.475-1.183-0.475-1.562,0L89.562,55.249   c-0.667,0.835-1.973,0.984-2.812,0.312c-0.861-0.688-1.001-1.949-0.312-2.811l16-20C102.82,32.273,103.389,32,104,32   s1.18,0.273,1.562,0.751l16,20C122.25,53.612,122.11,54.873,121.25,55.562z"/></g></svg>